PathFileType	4	(X/Y/Z)	26_2_56_p0_0-334_filt_butterworth.trc
DataRate	CameraRate	NumFrames	NumMarkers	Units	OrigDataRate	OrigDataStartFrame	OrigNumFrames
59.0	59.0	4	27	m	59.0	0	334
Frame#	Time	RHip			RKnee			RAnkle			RBigToe			RSmallToe			RHeel			LHip			LKnee			LAnkle			LBigToe			LSmallToe			LHeel			Neck			Head			Nose			RShoulder			RElbow			RWrist			RThumb			RIndex			RPinky			LShoulder			LElbow			LWrist			LThumb			LIndex			LPinky			
		X1	Y1	Z1	X2	Y2	Z2	X3	Y3	Z3	X4	Y4	Z4	X5	Y5	Z5	X6	Y6	Z6	X7	Y7	Z7	X8	Y8	Z8	X9	Y9	Z9	X10	Y10	Z10	X11	Y11	Z11	X12	Y12	Z12	X13	Y13	Z13	X14	Y14	Z14	X15	Y15	Z15	X16	Y16	Z16	X17	Y17	Z17	X18	Y18	Z18	X19	Y19	Z19	X20	Y20	Z20	X21	Y21	Z21	X22	Y22	Z22	X23	Y23	Z23	X24	Y24	Z24	X25	Y25	Z25	X26	Y26	Z26	X27	Y27	Z27	
0	0.0	0.29804897030335836	0.7388012595238411	0.8279832430846976	0.30164720523374094	0.9797372324015883	1.2296533564097416	0.2693049426155577	1.2251487160194798	1.6351681941168663	0.2449016294381644	1.0353833489898074	1.7060373414620447	0.2923348434543003	1.0765362355400474	1.7091789192364117	0.25414207086341745	1.3109740728633443	1.6823895807778244	0.07316490186447816	0.7697378202239444	0.828416467817956	0.07664727946687389	0.9806502377425331	1.223964510996339	0.06530125324654838	1.2058764398200645	1.6437703676960744	0.07860681966410625	1.1037210198125926	1.7138257043227048	0.027648174482089522	1.1020551551560502	1.703359514588462	0.07412327290089438	1.2788789407419474	1.6722759517885337	0.20011898129287087	0.5255521888128892	0.3146875582865547	0.20815459109006468	0.3978125063443405	0.09736468901449394	0.18822756185487052	0.3799525707750969	0.24272933137455407	0.3620379492871764	0.5354794922682724	0.4198625954597775	0.3808654721460274	0.588636714635465	0.6897214092806777	0.24215617447475057	0.6358967908434431	0.8905144100257165	0.16973189938433475	0.6595514363031998	0.9798443135302851	0.16614410949977132	0.6648789027351838	0.9884293931381909	0.1746028533876772	0.6628456217638712	0.9888040170442692	0.023137005998379822	0.5534292184937005	0.40463479792135415	0.010955759085809513	0.6161172536888755	0.6669264625729743	0.12044496210592838	0.648161675923067	0.8890779910363923	0.19324866444978056	0.6252892309955994	0.9507638160665746	0.19320701243662952	0.6550906639062387	0.9877333020426193	0.170094766640028	0.6676930917044456	0.9981411962608226
1	0.0169491525423728	0.29812214655577424	0.7393981747153192	0.8271764821554494	0.30127658266639074	0.9803640071025975	1.2312261835068563	0.26936173866720425	1.2250121132925524	1.634928625247784	0.24487927752410363	1.0313546964233857	1.700780747318123	0.29270945609970345	1.0740793176890548	1.7058006457110806	0.25414903661800414	1.3109262418148184	1.6823486107730685	0.07339947054614097	0.769770505682996	0.8260128337452942	0.07665117901089807	0.9805142806543804	1.2249751118449286	0.06476888438458774	1.2029823506992068	1.6407591570211226	0.08125868637343281	1.0926069102569047	1.711892639987811	0.027477223784585093	1.1019133329629494	1.7032686546207967	0.07011835877077459	1.2876622987869837	1.673378364463935	0.19991152030408627	0.5236361373348634	0.31056399148121466	0.20691535509204725	0.4020084586624206	0.09572140369981687	0.18810592001877185	0.3790979356376031	0.2412338249557714	0.36195247640709843	0.5351039166646389	0.4199191059375118	0.3839189161898633	0.5968388553821664	0.6886611427513631	0.24257382327172916	0.6461161431150871	0.8896632739554416	0.17000824509402163	0.6600606993630445	0.9797126905170292	0.16621999171147867	0.6650156389123175	0.9880255127459657	0.17438924036673803	0.6631405532016033	0.9900707817947308	0.023121612436812277	0.5518452199022412	0.40251954741789314	0.013380380751010496	0.616589259836192	0.6676007013175981	0.11754532268212484	0.6442111065759953	0.8909287994131275	0.19601346054679133	0.6256133434725055	0.9482010711134347	0.1979297114376695	0.654371174462988	0.9876110782162668	0.16898740543827354	0.6677810466580494	1.001127942736184
2	0.0338983050847457	0.2980743878272959	0.7392399221844922	0.8267842975096064	0.30101992794232785	0.98074364952683	1.2322419790574655	0.2693844380778282	1.2249228587587164	1.6348029081824769	0.24474251674277775	1.0293365226861888	1.6984574220255428	0.2929129881012809	1.0725835631723468	1.7037566655435814	0.2541732911531186	1.3109077911138005	1.682301671364876	0.07355956498553028	0.7692130382930489	0.8242227597574735	0.07664977118350645	0.9803827607859006	1.224995092166127	0.06441560130830445	1.2013039136676693	1.638526322744208	0.0828537306443274	1.0860080851490264	1.7107978778653563	0.02737319503406395	1.1019060444763147	1.7028434253578906	0.0679687206088353	1.2937382940140072	1.6741522133390734	0.1998176808242447	0.5225187157430273	0.3080671834746414	0.20567233946056632	0.40611782369157007	0.0941263217393723	0.1880156009005259	0.37873526741712726	0.24061472860981448	0.36242834673515056	0.5361191012551393	0.41964008127703206	0.3855370415697288	0.601748587849433	0.6886570610129864	0.24282709205119296	0.6554358927383326	0.8888799567284602	0.17011174846488866	0.660085799883107	0.9796386353789704	0.16620767652039617	0.6652461498043809	0.9877817663416676	0.17425527099028387	0.6633299043896158	0.9908175546112251	0.02308372207332759	0.550912785998198	0.40130503609613455	0.014901768393492108	0.6166380112796922	0.6672078273754461	0.11482567542883063	0.6404171596667235	0.8926362989819067	0.1968503689618512	0.6253882418710307	0.946681330685038	0.20034397818862557	0.6538354949103109	0.9871614060526371	0.16852615326669662	0.6681398274202426	1.0035271109140684
3	0.0508474576271186	0.2980046442749008	0.7386332938709039	0.8270220929445582	0.3008876292482925	0.9807959968184723	1.232538266200784	0.26937963732568326	1.2249156213065981	1.6347867803180476	0.24443205748818272	1.0293024687521444	1.6989906416477396	0.2929001608469814	1.0720284124644655	1.7031462385489553	0.2542091143485946	1.3109041170192968	1.6821565702591652	0.07364414417640547	0.7684683467678755	0.8238212486522031	0.07671829456342825	0.980115664946182	1.2240430426349003	0.06424448893698374	1.2009540961931051	1.6369066454053454	0.08331436735668436	1.084202034500054	1.7105815222585932	0.02731972446527945	1.1020173845841281	1.7018256038563568	0.06793484113888876	1.297591677022438	1.6746770764761565	0.19986644461878625	0.52221156176811	0.30740800422367753	0.20494115866155102	0.4087642538249002	0.09310280743231714	0.18799505575284045	0.3789888823638635	0.24116743922719241	0.36375437003875233	0.5392563654803687	0.41883013050665896	0.3853580682456797	0.6022297893210605	0.6897532518121012	0.24258142023610446	0.6604780926486072	0.8884500424460404	0.1701386552938631	0.6586810862017571	0.9796638341105626	0.16621300002273195	0.6651818214582002	0.987688705016903	0.1742055705917928	0.6633774749710832	0.9910075177856416	0.023014668364571667	0.5507306556154081	0.40101678229456633	0.015449357752226275	0.6162453777308692	0.6657299166091588	0.11298451278986923	0.6378075227783451	0.8937638070471955	0.1958071531869499	0.6246472467274631	0.94627405402881	0.20007225975767562	0.6529863844129035	0.9862055026258236	0.16892773684211257	0.668802939794078	1.0050964904252173
